# xmcd
#
# Track frame offsets: 
#        150
#        25225
#        50510
#        74555
#        91262
#        110385
#        134435
#        159347
#        171177
#        196905
#        213125
#
# Disc length: 3083 seconds
#
# Revision: 0
# Processed by: cddbd v1.5.2PL0 Copyright (c) Steve Scherf et al.
# Submitted via: ExactAudioCopy v0.95b4
#
DISCID=930c090b
DTITLE=Youichirou Kakizaki - Dog Soul K
DYEAR=2002
DGENRE=Soul
TTITLE0=MATERIAL AND MORAL
TTITLE1=Renacer
TTITLE2=VICTIMS OF LOVE
TTITLE3=HANTED MAN
TTITLE4=FATE
TTITLE5=FOREVER MORE
TTITLE6=Did you know?
TTITLE7=ANIMAL FUNK
TTITLE8=Which way...
TTITLE9=GET. SET. GO!
TTITLE10=For. W
EXTD=
EXTT0=
EXTT1=
EXTT2=
EXTT3=
EXTT4=
EXTT5=
EXTT6=
EXTT7=
EXTT8=
EXTT9=
EXTT10=
PLAYORDER=
